{
    "asset" : {
        "generator" : "Khronos glTF Blender I/O v1.7.33",
        "version" : "2.0"
    },
    "scene" : 0,
    "scenes" : [
        {
            "name" : "Scene",
            "nodes" : [
                0,
                1,
                2,
                3,
                4,
                5,
                6,
                7,
                8,
                9,
                10,
                11,
                12
            ]
        }
    ],
    "nodes" : [
        {
            "mesh" : 0,
            "name" : "Front arms",
            "rotation" : [
                -0.25743287801742554,
                0,
                0,
                0.9662961959838867
            ],
            "scale" : [
                0.06036747992038727,
                1.248469591140747,
                0.0875488743185997
            ],
            "translation" : [
                -0.013572841882705688,
                2.5890450477600098,
                -0.7404005527496338
            ]
        },
        {
            "mesh" : 1,
            "name" : "Top body",
            "scale" : [
                0.4148237705230713,
                0.43827375769615173,
                1.6476668119430542
            ],
            "translation" : [
                -0.0082014799118042,
                2.354099988937378,
                -2.4612953662872314
            ]
        },
        {
            "mesh" : 2,
            "name" : "Bottom body",
            "scale" : [
                0.416270911693573,
                0.7806133031845093,
                0.8909094929695129
            ],
            "translation" : [
                -0.0082014799118042,
                1.1369866132736206,
                -2.336077928543091
            ]
        },
        {
            "mesh" : 3,
            "name" : "Back holder",
            "rotation" : [
                0.10913433134555817,
                0,
                0,
                0.9940270185470581
            ],
            "scale" : [
                0.11845458298921585,
                0.19599367678165436,
                0.7942370176315308
            ],
            "translation" : [
                0.009189754724502563,
                0.9361993074417114,
                -4.041910171508789
            ]
        },
        {
            "mesh" : 4,
            "name" : "Handles",
            "scale" : [
                0.6140378713607788,
                0.0831698402762413,
                0.21195603907108307
            ],
            "translation" : [
                0.002853870391845703,
                3.3789937496185303,
                0
            ]
        },
        {
            "mesh" : 5,
            "name" : "Wheel.001",
            "rotation" : [
                0.5,
                0.5,
                -0.5,
                0.4999999701976776
            ],
            "scale" : [
                1.070510745048523,
                1.070510745048523,
                1.070510745048523
            ],
            "translation" : [
                -0.0015111889224499464,
                1.1021586656570435,
                -4.776728630065918
            ]
        },
        {
            "mesh" : 6,
            "name" : "Cylinder.001",
            "rotation" : [
                0,
                0,
                -0.7071067690849304,
                0.7071068286895752
            ],
            "scale" : [
                0.24624374508857727,
                0.45133307576179504,
                0.24624374508857727
            ],
            "translation" : [
                -0.008429315872490406,
                1.0806254148483276,
                -4.780233860015869
            ]
        },
        {
            "mesh" : 7,
            "name" : "Neon3",
            "rotation" : [
                0,
                0,
                -0.7071067094802856,
                0.7071068286895752
            ],
            "scale" : [
                0.8016905188560486,
                0.8016905188560486,
                0.8016905188560486
            ],
            "translation" : [
                0.5019519329071045,
                1.0879541635513306,
                -4.749861717224121
            ]
        },
        {
            "mesh" : 8,
            "name" : "Neon4",
            "rotation" : [
                0,
                0,
                -0.7071067094802856,
                0.7071068286895752
            ],
            "scale" : [
                0.8016905188560486,
                0.8016905188560486,
                0.8016905188560486
            ],
            "translation" : [
                -0.4980480670928955,
                1.0879541635513306,
                -4.749861717224121
            ]
        },
        {
            "mesh" : 9,
            "name" : "Cylinder",
            "rotation" : [
                0,
                0,
                -0.7071067690849304,
                0.7071068286895752
            ],
            "scale" : [
                0.2300245463848114,
                0.4216053783893585,
                0.2300245463848114
            ],
            "translation" : [
                -0.0082014799118042,
                1.0117692947387695,
                -0.0032744593918323517
            ]
        },
        {
            "mesh" : 10,
            "name" : "Wheel",
            "rotation" : [
                0.5,
                0.5,
                -0.5,
                0.4999999701976776
            ],
            "translation" : [
                -0.0017390251159667969,
                1.0318841934204102,
                0
            ]
        },
        {
            "mesh" : 11,
            "name" : "Neon",
            "rotation" : [
                0,
                0,
                -0.7071067094802856,
                0.7071068286895752
            ],
            "scale" : [
                0.8016905188560486,
                0.8016905188560486,
                0.8016905188560486
            ],
            "translation" : [
                0.4495704770088196,
                1.0479447841644287,
                0.016438499093055725
            ]
        },
        {
            "mesh" : 12,
            "name" : "Neon2",
            "rotation" : [
                0,
                0,
                -0.7071067094802856,
                0.7071068286895752
            ],
            "scale" : [
                0.8016905188560486,
                0.8016905188560486,
                0.8016905188560486
            ],
            "translation" : [
                -0.4504295587539673,
                1.0479447841644287,
                0.016438499093055725
            ]
        }
    ],
    "materials" : [
        {
            "doubleSided" : true,
            "name" : "Metal",
            "pbrMetallicRoughness" : {
                "baseColorFactor" : [
                    0.18401937186717987,
                    0.18401937186717987,
                    0.18401937186717987,
                    1
                ]
            }
        },
        {
            "doubleSided" : true,
            "name" : "Plastic",
            "pbrMetallicRoughness" : {
                "baseColorFactor" : [
                    0.06838291138410568,
                    0.06838291138410568,
                    0.06838291138410568,
                    1
                ],
                "metallicFactor" : 0,
                "roughnessFactor" : 0.5
            }
        },
        {
            "doubleSided" : true,
            "emissiveFactor" : [
                0,
                1,
                1
            ],
            "name" : "Glowwy neon blue",
            "pbrMetallicRoughness" : {}
        },
        {
            "doubleSided" : true,
            "emissiveFactor" : [
                1,
                1,
                1
            ],
            "name" : "Glowwy neon orange",
            "pbrMetallicRoughness" : {}
        }
    ],
    "meshes" : [
        {
            "name" : "Cube",
            "primitives" : [
                {
                    "attributes" : {
                        "POSITION" : 0,
                        "NORMAL" : 1
                    },
                    "indices" : 2,
                    "material" : 0
                }
            ]
        },
        {
            "name" : "Cube.001",
            "primitives" : [
                {
                    "attributes" : {
                        "POSITION" : 3,
                        "NORMAL" : 4
                    },
                    "indices" : 5,
                    "material" : 0
                }
            ]
        },
        {
            "name" : "Cube.002",
            "primitives" : [
                {
                    "attributes" : {
                        "POSITION" : 6,
                        "NORMAL" : 7
                    },
                    "indices" : 8,
                    "material" : 0
                }
            ]
        },
        {
            "name" : "Cube.003",
            "primitives" : [
                {
                    "attributes" : {
                        "POSITION" : 9,
                        "NORMAL" : 10
                    },
                    "indices" : 11,
                    "material" : 0
                }
            ]
        },
        {
            "name" : "Cube.004",
            "primitives" : [
                {
                    "attributes" : {
                        "POSITION" : 12,
                        "NORMAL" : 13
                    },
                    "indices" : 14,
                    "material" : 1
                }
            ]
        },
        {
            "name" : "Cylinder.002",
            "primitives" : [
                {
                    "attributes" : {
                        "POSITION" : 15,
                        "NORMAL" : 16
                    },
                    "indices" : 17,
                    "material" : 1
                }
            ]
        },
        {
            "name" : "Cylinder.003",
            "primitives" : [
                {
                    "attributes" : {
                        "POSITION" : 18,
                        "NORMAL" : 19
                    },
                    "indices" : 20,
                    "material" : 0
                }
            ]
        },
        {
            "name" : "BezierCircle.002",
            "primitives" : [
                {
                    "attributes" : {
                        "POSITION" : 21,
                        "NORMAL" : 22
                    },
                    "indices" : 23,
                    "material" : 2
                }
            ]
        },
        {
            "name" : "BezierCircle.004",
            "primitives" : [
                {
                    "attributes" : {
                        "POSITION" : 24,
                        "NORMAL" : 25
                    },
                    "indices" : 23,
                    "material" : 2
                }
            ]
        },
        {
            "name" : "Cylinder.001",
            "primitives" : [
                {
                    "attributes" : {
                        "POSITION" : 26,
                        "NORMAL" : 27
                    },
                    "indices" : 20,
                    "material" : 0
                }
            ]
        },
        {
            "name" : "Cylinder",
            "primitives" : [
                {
                    "attributes" : {
                        "POSITION" : 28,
                        "NORMAL" : 29
                    },
                    "indices" : 17,
                    "material" : 1
                }
            ]
        },
        {
            "name" : "BezierCircle",
            "primitives" : [
                {
                    "attributes" : {
                        "POSITION" : 30,
                        "NORMAL" : 31
                    },
                    "indices" : 23,
                    "material" : 3
                }
            ]
        },
        {
            "name" : "BezierCircle.001",
            "primitives" : [
                {
                    "attributes" : {
                        "POSITION" : 32,
                        "NORMAL" : 33
                    },
                    "indices" : 23,
                    "material" : 3
                }
            ]
        }
    ],
    "accessors" : [
        {
            "bufferView" : 0,
            "componentType" : 5126,
            "count" : 16,
            "max" : [
                10.162224769592285,
                0.4999254643917084,
                0.15964829921722412
            ],
            "min" : [
                -10.162224769592285,
                -1.5000743865966797,
                -1.8403517007827759
            ],
            "type" : "VEC3"
        },
        {
            "bufferView" : 1,
            "componentType" : 5126,
            "count" : 16,
            "type" : "VEC3"
        },
        {
            "bufferView" : 2,
            "componentType" : 5123,
            "count" : 108,
            "type" : "SCALAR"
        },
        {
            "bufferView" : 3,
            "componentType" : 5126,
            "count" : 32,
            "max" : [
                1,
                1.137138843536377,
                1
            ],
            "min" : [
                -1,
                -1,
                -1.1569961309432983
            ],
            "type" : "VEC3"
        },
        {
            "bufferView" : 4,
            "componentType" : 5126,
            "count" : 32,
            "type" : "VEC3"
        },
        {
            "bufferView" : 5,
            "componentType" : 5123,
            "count" : 180,
            "type" : "SCALAR"
        },
        {
            "bufferView" : 6,
            "componentType" : 5126,
            "count" : 66,
            "max" : [
                1,
                1,
                1.3710523843765259
            ],
            "min" : [
                -1,
                -1,
                -1
            ],
            "type" : "VEC3"
        },
        {
            "bufferView" : 7,
            "componentType" : 5126,
            "count" : 66,
            "type" : "VEC3"
        },
        {
            "bufferView" : 8,
            "componentType" : 5123,
            "count" : 144,
            "type" : "SCALAR"
        },
        {
            "bufferView" : 9,
            "componentType" : 5126,
            "count" : 80,
            "max" : [
                5.842614650726318,
                1.7347092628479004,
                1.2995587587356567
            ],
            "min" : [
                -5.842614650726318,
                -1.5191038846969604,
                -1.3216091394424438
            ],
            "type" : "VEC3"
        },
        {
            "bufferView" : 10,
            "componentType" : 5126,
            "count" : 80,
            "type" : "VEC3"
        },
        {
            "bufferView" : 11,
            "componentType" : 5123,
            "count" : 120,
            "type" : "SCALAR"
        },
        {
            "bufferView" : 12,
            "componentType" : 5126,
            "count" : 48,
            "max" : [
                1.9762269258499146,
                -2.8910152912139893,
                -4.810519218444824
            ],
            "min" : [
                -1.9762269258499146,
                -4.520782470703125,
                -6.957444190979004
            ],
            "type" : "VEC3"
        },
        {
            "bufferView" : 13,
            "componentType" : 5126,
            "count" : 48,
            "type" : "VEC3"
        },
        {
            "bufferView" : 14,
            "componentType" : 5123,
            "count" : 72,
            "type" : "SCALAR"
        },
        {
            "bufferView" : 15,
            "componentType" : 5126,
            "count" : 1416,
            "max" : [
                1,
                0.4683835804462433,
                1
            ],
            "min" : [
                -1,
                -0.4683835804462433,
                -1
            ],
            "type" : "VEC3"
        },
        {
            "bufferView" : 16,
            "componentType" : 5126,
            "count" : 1416,
            "type" : "VEC3"
        },
        {
            "bufferView" : 17,
            "componentType" : 5123,
            "count" : 2304,
            "type" : "SCALAR"
        },
        {
            "bufferView" : 18,
            "componentType" : 5126,
            "count" : 64,
            "max" : [
                1,
                1,
                1
            ],
            "min" : [
                -1,
                -1,
                -1
            ],
            "type" : "VEC3"
        },
        {
            "bufferView" : 19,
            "componentType" : 5126,
            "count" : 64,
            "type" : "VEC3"
        },
        {
            "bufferView" : 20,
            "componentType" : 5123,
            "count" : 372,
            "type" : "SCALAR"
        },
        {
            "bufferView" : 21,
            "componentType" : 5126,
            "count" : 960,
            "max" : [
                1.0399999618530273,
                0.040000006556510925,
                1.0399999618530273
            ],
            "min" : [
                -1.0399999618530273,
                -0.040000006556510925,
                -1.0399999618530273
            ],
            "type" : "VEC3"
        },
        {
            "bufferView" : 22,
            "componentType" : 5126,
            "count" : 960,
            "type" : "VEC3"
        },
        {
            "bufferView" : 23,
            "componentType" : 5123,
            "count" : 5760,
            "type" : "SCALAR"
        },
        {
            "bufferView" : 24,
            "componentType" : 5126,
            "count" : 960,
            "max" : [
                1.0399999618530273,
                0.040000006556510925,
                1.0399999618530273
            ],
            "min" : [
                -1.0399999618530273,
                -0.040000006556510925,
                -1.0399999618530273
            ],
            "type" : "VEC3"
        },
        {
            "bufferView" : 25,
            "componentType" : 5126,
            "count" : 960,
            "type" : "VEC3"
        },
        {
            "bufferView" : 26,
            "componentType" : 5126,
            "count" : 64,
            "max" : [
                1,
                1,
                1
            ],
            "min" : [
                -1,
                -1,
                -1
            ],
            "type" : "VEC3"
        },
        {
            "bufferView" : 27,
            "componentType" : 5126,
            "count" : 64,
            "type" : "VEC3"
        },
        {
            "bufferView" : 28,
            "componentType" : 5126,
            "count" : 1416,
            "max" : [
                1,
                0.4683835804462433,
                1
            ],
            "min" : [
                -1,
                -0.4683835804462433,
                -1
            ],
            "type" : "VEC3"
        },
        {
            "bufferView" : 29,
            "componentType" : 5126,
            "count" : 1416,
            "type" : "VEC3"
        },
        {
            "bufferView" : 30,
            "componentType" : 5126,
            "count" : 960,
            "max" : [
                1.0399999618530273,
                0.040000006556510925,
                1.0399999618530273
            ],
            "min" : [
                -1.0399999618530273,
                -0.040000006556510925,
                -1.0399999618530273
            ],
            "type" : "VEC3"
        },
        {
            "bufferView" : 31,
            "componentType" : 5126,
            "count" : 960,
            "type" : "VEC3"
        },
        {
            "bufferView" : 32,
            "componentType" : 5126,
            "count" : 960,
            "max" : [
                1.0399999618530273,
                0.040000006556510925,
                1.0399999618530273
            ],
            "min" : [
                -1.0399999618530273,
                -0.040000006556510925,
                -1.0399999618530273
            ],
            "type" : "VEC3"
        },
        {
            "bufferView" : 33,
            "componentType" : 5126,
            "count" : 960,
            "type" : "VEC3"
        }
    ],
    "bufferViews" : [
        {
            "buffer" : 0,
            "byteLength" : 192,
            "byteOffset" : 0
        },
        {
            "buffer" : 0,
            "byteLength" : 192,
            "byteOffset" : 192
        },
        {
            "buffer" : 0,
            "byteLength" : 216,
            "byteOffset" : 384
        },
        {
            "buffer" : 0,
            "byteLength" : 384,
            "byteOffset" : 600
        },
        {
            "buffer" : 0,
            "byteLength" : 384,
            "byteOffset" : 984
        },
        {
            "buffer" : 0,
            "byteLength" : 360,
            "byteOffset" : 1368
        },
        {
            "buffer" : 0,
            "byteLength" : 792,
            "byteOffset" : 1728
        },
        {
            "buffer" : 0,
            "byteLength" : 792,
            "byteOffset" : 2520
        },
        {
            "buffer" : 0,
            "byteLength" : 288,
            "byteOffset" : 3312
        },
        {
            "buffer" : 0,
            "byteLength" : 960,
            "byteOffset" : 3600
        },
        {
            "buffer" : 0,
            "byteLength" : 960,
            "byteOffset" : 4560
        },
        {
            "buffer" : 0,
            "byteLength" : 240,
            "byteOffset" : 5520
        },
        {
            "buffer" : 0,
            "byteLength" : 576,
            "byteOffset" : 5760
        },
        {
            "buffer" : 0,
            "byteLength" : 576,
            "byteOffset" : 6336
        },
        {
            "buffer" : 0,
            "byteLength" : 144,
            "byteOffset" : 6912
        },
        {
            "buffer" : 0,
            "byteLength" : 16992,
            "byteOffset" : 7056
        },
        {
            "buffer" : 0,
            "byteLength" : 16992,
            "byteOffset" : 24048
        },
        {
            "buffer" : 0,
            "byteLength" : 4608,
            "byteOffset" : 41040
        },
        {
            "buffer" : 0,
            "byteLength" : 768,
            "byteOffset" : 45648
        },
        {
            "buffer" : 0,
            "byteLength" : 768,
            "byteOffset" : 46416
        },
        {
            "buffer" : 0,
            "byteLength" : 744,
            "byteOffset" : 47184
        },
        {
            "buffer" : 0,
            "byteLength" : 11520,
            "byteOffset" : 47928
        },
        {
            "buffer" : 0,
            "byteLength" : 11520,
            "byteOffset" : 59448
        },
        {
            "buffer" : 0,
            "byteLength" : 11520,
            "byteOffset" : 70968
        },
        {
            "buffer" : 0,
            "byteLength" : 11520,
            "byteOffset" : 82488
        },
        {
            "buffer" : 0,
            "byteLength" : 11520,
            "byteOffset" : 94008
        },
        {
            "buffer" : 0,
            "byteLength" : 768,
            "byteOffset" : 105528
        },
        {
            "buffer" : 0,
            "byteLength" : 768,
            "byteOffset" : 106296
        },
        {
            "buffer" : 0,
            "byteLength" : 16992,
            "byteOffset" : 107064
        },
        {
            "buffer" : 0,
            "byteLength" : 16992,
            "byteOffset" : 124056
        },
        {
            "buffer" : 0,
            "byteLength" : 11520,
            "byteOffset" : 141048
        },
        {
            "buffer" : 0,
            "byteLength" : 11520,
            "byteOffset" : 152568
        },
        {
            "buffer" : 0,
            "byteLength" : 11520,
            "byteOffset" : 164088
        },
        {
            "buffer" : 0,
            "byteLength" : 11520,
            "byteOffset" : 175608
        }
    ],
    "buffers" : [
        {
            "byteLength" : 187128,
            "uri" : "data:application/octet-stream;base64,"
        }
    ]
}
